<?xml version="1.0" ?><!-- Created with Inkscape (http://www.inkscape.org/) --><!DOCTYPE svg  PUBLIC '-//W3C//DTD SVG 1.1//EN'  'http://www.w3.org/Graphics/SVG/1.1/DTD/svg11.dtd' [
	<!ENTITY stroke_color "#000000">
	<!ENTITY fill_color "#ffffff">
]><svg height="55" id="svg2" version="1.1" viewBox="0 0 55 55" width="55" xml:space="preserve" xmlns="http://www.w3.org/2000/svg" xmlns:cc="http://creativecommons.org/ns#" xmlns:dc="http://purl.org/dc/elements/1.1/" xmlns:rdf="http://www.w3.org/1999/02/22-rdf-syntax-ns#" xmlns:svg="http://www.w3.org/2000/svg"><metadata id="metadata15"><rdf:RDF><cc:Work rdf:about=""><dc:format>image/svg+xml</dc:format><dc:type rdf:resource="http://purl.org/dc/dcmitype/StillImage"/><dc:title/></cc:Work></rdf:RDF></metadata><defs id="defs13"/><rect height="30.771" id="rect5" style="fill:&fill_color;;stroke:&stroke_color;;stroke-width:3.5;stroke-linejoin:round;stroke-miterlimit:4;stroke-dasharray:none;display:inline" width="41.438" x="7.25" y="12.213"/><path d="m 530.9488,186.70897 c -0.77941,0.55189 -3.15759,-1.90601 -4.11253,-1.9179 -0.95532,-0.0119 -3.39494,2.38585 -4.16096,1.8149 -0.76573,-0.57072 0.83698,-3.59203 0.55319,-4.50391 -0.2839,-0.91223 -3.31818,-2.49151 -3.01189,-3.39647 0.30617,-0.90461 3.67487,-0.31399 4.45442,-0.86567 0.77986,-0.5519 1.3442,-3.92569 2.29952,-3.91404 0.95494,0.0116 1.43421,3.39798 2.19979,3.9689 0.76588,0.57114 4.14893,0.0653 4.43307,0.97746 0.28402,0.9118 -2.78848,2.41405 -3.09488,3.31858 -0.30652,0.90489 1.21999,3.96605 0.44027,4.51815 z" id="path11922" style="color:#000000;fill:&fill_color;;fill-opacity:1;fill-rule:nonzero;stroke:&stroke_color;;stroke-width:0.93543482;stroke-miterlimit:4;stroke-dasharray:none;marker:none;visibility:visible;display:inline;overflow:visible;enable-background:accumulate" transform="matrix(1.9179271,-0.01596272,0.01596272,1.9179271,-985.65361,-309.97172)"/><path d="m 29.307358,25.573499 c -2.866171,-1.606858 -6.85665,-0.08719 -6.85665,-0.08719 0,0 0.777841,4.210019 3.64519,5.815503 2.867393,1.604678 6.866255,0.07223 6.866255,0.07223 0,0 -0.7871,-4.195683 -3.654795,-5.800547 z m -2.7327,4.874347 c -1.109636,-0.622094 -1.504452,-2.027244 -0.882532,-3.136569 0.621053,-1.107779 2.026353,-1.505766 3.136299,-0.883499 1.108396,0.6214 1.502964,2.028445 0.881911,3.136224 -0.62192,1.109325 -2.027281,1.505244 -3.135678,0.883844 z" id="path7" style="fill:&stroke_color;;stroke:none;display:inline"/><circle cx="27.504" cy="27.598" id="circle9" r="2.9460001" style="fill:&stroke_color;;stroke:none;display:inline" transform="matrix(0.30952167,0.17352682,-0.17352682,0.30952167,23.977412,15.123744)"/></svg>